<svg xmlns="http://www.w3.org/2000/svg" width="200" height="200"><path fill="#131C2E" d="M0 0h200v200H0V0Z"/><path fill="#F6A672" d="m48.928 81.644 2.445-.007c2.669-.003 5.337.016 8.006.035l5.555.006c3.882.004 7.763.019 11.644.04 4.982.03 9.965.04 14.948.044 3.823.005 7.647.014 11.47.026l5.513.015c2.564.006 5.128.02 7.692.036l2.316.003c5.254.043 5.254.043 7.483 1.158l1 29 2-11h14v4l-2.938.375L137 106l-1 2 3.25-.125c3.75.125 3.75.125 5.703 1.11 2.316 1.149 3.98 1.276 6.547 1.39 3.303.299 4.291.463 7 2.562 3.618 4.975 2.723 10.36 2.74 16.33.01 2.028.04 4.055.072 6.083l.016 3.888.028 3.564c-.395 3.545-1.216 5.371-3.356 8.198-3.447 2.298-4.701 2.244-8.757 2.227h-3.578l-3.864-.032-3.956-.008c-3.467-.008-6.934-.028-10.401-.05-3.54-.02-7.079-.03-10.618-.04A7000.48 7000.48 0 0 1 96 153v-3c3.167-.941 5.959-1.101 9.256-1.05l3.175.04 3.413.053c2.384.022 4.768.044 7.152.064 3.76.038 7.519.08 11.278.14 3.627.054 7.254.083 10.882.108l3.413.073 3.175.01 2.79.036c3.247-.624 4.43-1.925 6.466-4.474.594-2.596.594-2.596.496-5.43l.002-3.16-.06-3.285.021-3.262C157.4 121.99 157.4 121.99 154 115c-2.75-.917-4.36-1.109-7.188-1.063L143 114v-2c-4.01-.179-4.01-.179-8 0l-2 2v2l3 2c.408 2.712.133 5.244 0 8l-4 2-1.875-2.438c-1.867-2.6-1.867-2.6-4.125-3.562l.07 3.648c.02 1.576.037 3.151.055 4.727l.05 2.406c.018 2.074-.072 4.148-.175 6.219-2.818 2.818-4.64 2.266-8.59 2.29l-2.05.02a893.21 893.21 0 0 1-6.727.026l-4.671.02c-3.267.012-6.534.016-9.8.015-4.186 0-8.371.027-12.556.061-3.218.022-6.434.026-9.652.025-1.543.003-3.086.012-4.628.027-2.16.02-4.318.014-6.478.002l-3.723.008C54 141 54 141 51.635 139.282 50 137 50 137 49 132l70-1v-2l-80-1v-4h61l-1-3-60-1-1-4c1-1 1-1 3.246-1.12l3.008.006h3.397l3.697.016 3.762.005c3.306.004 6.612.013 9.918.024 3.372.01 6.743.015 10.115.02 6.619.011 13.238.028 19.857.049l-1-4-32-1v-4h32l-1-3-54-1v-4l81-1v-3l-65-1v-4l64-1 1-2c-9.597-.046-19.193-.082-28.79-.104-4.456-.01-8.912-.024-13.367-.047-4.3-.022-8.598-.034-12.897-.039-1.641-.003-3.283-.01-4.924-.021-2.296-.015-4.592-.017-6.888-.016l-3.964-.014c-3.328-.007-3.328-.007-6.17 2.241-.73 2.563-.73 2.563-1 5h-4c-.365-7.427-.365-7.427 1.023-9.605 3.07-2.165 6.285-1.795 9.905-1.751Z"/><path fill="#D93D21" d="M153.5 62.625c8.183 7.773 8.183 7.773 8.703 13.68.16 8.771.16 8.771-3.203 12.695-5.973 5.591-9.692 6.333-17.781 6.297-4.74-.437-6.89-1.968-10.219-5.297a144.504 144.504 0 0 1-.563-6.063l-.253-3.347L130 78l-4-1c-.354-3.717-.124-5.751 1.563-9.125 6.654-7.849 16.513-9.625 25.937-5.25Z"/><path fill="#DD5A34" d="M129 101h14v4l-2.938.375L137 106l-1 2 3.25-.125c3.75.125 3.75.125 5.703 1.11 2.316 1.149 3.98 1.276 6.547 1.39 3.303.299 4.291.463 7 2.563 3.618 4.974 2.723 10.359 2.74 16.328.01 2.029.04 4.056.072 6.084l.016 3.888.028 3.564c-.395 3.545-1.216 5.371-3.356 8.198-3.447 2.298-4.701 2.244-8.757 2.227h-3.578l-3.864-.032-3.956-.008c-3.467-.008-6.934-.028-10.401-.05-3.54-.02-7.079-.03-10.618-.04A7000.48 7000.48 0 0 1 96 153v-3c3.167-.941 5.959-1.101 9.256-1.05l3.175.04 3.413.053c2.384.022 4.768.044 7.152.064 3.76.038 7.519.08 11.278.14 3.627.054 7.254.083 10.882.108l3.413.073 3.175.01 2.79.036c3.247-.624 4.43-1.925 6.466-4.474.594-2.596.594-2.596.496-5.43l.002-3.16-.06-3.285.021-3.262C157.4 121.99 157.4 121.99 154 115c-2.75-.917-4.36-1.109-7.188-1.063L143 114v-2c-4.01-.179-4.01-.179-8 0l-2 2v2l3 2c.408 2.712.133 5.244 0 8l-4 2-1.875-2.438c-1.867-2.6-1.867-2.6-4.125-3.562.585-7.102 1.654-14.002 3-21Z"/><path fill="#F8905A" d="M95.887 52.29c4.753 3.726 7.539 7.545 8.39 13.722.226 4.74-.863 7.964-3.277 11.988h-9l2-4c.417-2.542.417-2.542 0-5-1.396-1.815-1.396-1.815-3-3l2-3c.155-2.562.155-2.562-1-5-2.967-1.86-2.967-1.86-6-3v-3h-3v3h-3v-3h-2v3l-5 1-1 22h-8c-2.794-5.588-2.765-11.186-1-17.063 2.445-5.874 7.38-9.681 13-12.374 7.732-1.45 13.268-.796 19.887 3.726Z"/><path fill="#FA9C67" d="M115 103c2 2 2 2 2 6h-8l-1 5 9 1c-.417 4.861-2.502 6.764-6 10l-1 2-71 1v-4h61l2-5 2-1-1.063-1.563c-1.347-3.503-.838-5.832.063-9.437 3.168-4.943 6.602-4.522 12-4Z"/><path fill="#F2D4A1" d="M156 57c6.575 4.56 10.735 9.572 12.563 17.414.897 6.041.364 11.174-2.563 16.586-3.827 5.109-8.852 9.096-15 11-3-.25-3-.25-5-1l1-3c1.855-.703 1.855-.703 4.188-1.25 6.204-1.877 9.086-5.69 12.187-11.188 1.617-6.63.892-11.592-2.375-17.562-4.077-5.008-9.033-8.376-15.457-9.387-6.01-.267-10.61.92-15.543 4.387-4.446 4.086-5.545 9.323-7 15l-4-1c.415-7.739 2.796-12.88 8.375-18.313 8.84-5.682 19.176-7.136 28.625-1.687Z"/><path fill="#191D2D" d="M141 64h3v3h2v-3h2v3l5 2-.035 1.934-.028 2.504-.035 2.496c-.135 2.058-.135 2.058 1.098 3.066.464 5.337.464 5.337-1.313 7.875C151 88 151 88 148 88v4h-2v-4h-2l-1 5-2-1v-4h-2v2h-2V67h4v-3Z"/><path fill="#F7D690" d="M97.04 44.684C103.92 49.303 108.134 54.844 110 63c.887 11.226.887 11.226-1 15h-5l.543-2.055c1.79-7.835 1.453-13.708-2.582-20.761-3.627-4.922-8.568-7.385-14.383-8.754-7.69-1.123-13.41.537-19.89 4.695C61.977 57.233 60.517 63.835 60 72l-4-1c-.59-7.971 1.514-14.188 5.875-20.875 9.075-9.075 23.671-11.572 35.164-5.441Z"/><path fill="#F5A976" d="M150 61c1.89 1.34 1.89 1.34 3 3v3l2.063 2.75c2.418 4.057 2.003 5.74.937 10.25l-.563 2.938L155 85h-1c-1.19-5.38-2.292-10.453-2-16l-4-2v-3h-2v3h-2v-3h-3v3h-4v23h-1l-1-7-4-1-1-4-4-1c-.354-3.717-.124-5.751 1.563-9.125 6.194-7.306 13.14-8.27 22.437-6.875Z"/><path fill="#F05A30" d="M49 132c20.702 1.923 20.702 1.923 29.883 3.73 2.169.476 2.169.476 4.117-.73a116.9 116.9 0 0 1 6.125.438l3.32.308L95 136l1 4h13v1c-7.76.101-15.519.171-23.279.22-2.64.02-5.28.047-7.92.082-3.794.048-7.586.071-11.38.089l-3.582.062-3.336.001-2.934.027c-3.324-.622-4.492-1.866-6.569-4.481-.75-2.75-.75-2.75-1-5Z"/><path fill="#20191C" d="M46 85c9.353-.023 18.706-.04 28.06-.052 4.342-.005 8.685-.012 13.027-.023 4.189-.011 8.378-.017 12.566-.02 1.6-.002 3.201-.005 4.801-.01 2.237-.008 4.473-.009 6.71-.009l3.862-.006C118 85 118 85 120 86l-1 3c-8.18.023-16.36.04-24.539.052-3.798.005-7.596.012-11.394.023-3.663.011-7.326.017-10.99.02-1.4.002-2.799.005-4.198.01-1.956.008-3.913.008-5.869.009l-3.378.006C56 89 56 89 54 88c-2.658-.432-5.323-.698-8-1v-2Z"/><path fill="#F9B57C" d="M120.877 89.348c1.54 2.265 1.34 3.976 1.123 6.652l-2-2c-2.832-.333-2.832-.333-6.194-.319l-3.943-.06-4.277-.035a3089.36 3089.36 0 0 0-15.855-.187c-3.908-.04-7.815-.091-11.723-.141C70.338 93.16 62.669 93.077 55 93v-4c8.292-.2 16.585-.384 24.878-.547 3.851-.076 7.702-.157 11.552-.252 3.715-.091 7.43-.167 11.146-.233 1.418-.028 2.836-.061 4.254-.1 1.985-.053 3.97-.085 5.954-.117l3.426-.074c2.79.323 2.79.323 4.667 1.67Z"/><path fill="#F96E3B" d="M125 122h1c.054 2.792.094 5.583.125 8.375l.05 2.406c.018 2.074-.072 4.148-.175 6.219-2 2-2 2-5.02 2.23-20.056-.227-20.056-.227-24.98-1.23l-2-3c-2.782-.624-2.782-.624-5.938-.75l-3.214-.234c-2.925-.169-2.925-.169-5.848.984-2.48-.34-2.48-.34-5.188-.938l-2.73-.59L69 135v-1h46v1l10 2v-15Z"/><path fill="#1A2130" d="M129 101h14v4l-2.938.375L137 106l-1 2 3 1-2.438.688L134 111c-.894 2.548-.894 2.548-1 5l3 2c.408 2.712.133 5.244 0 8l-4 2-1.875-2.438c-1.867-2.6-1.867-2.6-4.125-3.562.585-7.102 1.654-14.002 3-21Z"/><path fill="#E49C6F" d="M76 58c1.958-.054 3.916-.093 5.875-.125l3.305-.07C88 58 88 58 90 60c-.375 3.125-.375 3.125-1 6h-2v3h-8v5h9v-5h2c.25 2.313.25 2.313 0 5-2.171 2.12-3.514 2.937-6.543 3.328l-2.644-.078-2.668-.047C76 77 76 77 75 76c-.1-2.47-.139-4.906-.125-7.375l-.012-2.078c.006-3.12.144-5.567 1.137-8.547Z"/><path fill="#F5A16B" d="m45.504 81.672 2.875.014c1.05.02 2.101.042 3.184.064l3.331.033c4.036.05 8.07.13 12.106.217l2.593.054c13.137.274 26.272.596 39.407.946l-1 2-2.334.025c-7.254.077-14.508.165-21.762.263-3.73.05-7.459.096-11.188.134-3.6.037-7.198.083-10.796.136-1.374.019-2.747.034-4.12.045a796.75 796.75 0 0 0-5.768.078l-3.317.04C45.78 85.81 45.78 85.81 43 88c-.73 2.563-.73 2.563-1 5h-4c-.37-7.52-.37-7.52 1.237-9.607 2.252-1.78 3.417-1.754 6.267-1.721Z"/><path fill="#F56842" d="M94 52c4.616 1.813 6.937 5.034 9.25 9.313 1.471 5.27 1.371 9.238-.75 14.187L101 78h-9l2-4c.372-2.553.642-4.998.813-7.563l.193-2.037c.306-3.96.306-3.96-1.494-7.365-.5-.341-.998-.683-1.512-1.035l2-4Z"/><path fill="#19212F" d="m108.875 102.734 2.125.016 2.125-.016C115 103 115 103 117 105v4h-8l-1 5 9 1c-.313 2.375-.313 2.375-1 5-3 2-3 2-5.938 1.875-3.587-1.025-4.905-1.84-7.062-4.875-1.082-3.966-1.442-6.053.313-9.813 3.174-4.114 3.174-4.114 5.562-4.453Z"/><path fill="#B0654B" d="m41.225 114.886 2.904.016 3.135.01 3.298.025 3.311.014c2.71.012 5.418.028 8.127.049v2h4v2h32v1H39l-1-4c1-1 1-1 3.225-1.114Z"/><path fill="#E6B194" d="M139 69c8 0 8 0 10 1 .75 1.875.75 1.875 1 4l-2 3 2 3c-.188 2.063-.188 2.063-1 4-3 2-3 2-10 1V69Z"/><path fill="#EEA06C" d="m94 51-.688 2.313L93 56l1.438 1.375C96 59 96 59 96.311 62.5 96 66 96 66 94 69l-3-3 2-3c.155-2.562.155-2.562-1-5-2.967-1.86-2.967-1.86-6-3v-3h-3v3h-3v-3h-2v3l-9-1c6.938-8.005 16.268-7.366 25-3Z"/><path fill="#D5533A" d="m165 75 4 2c-.631 9.797-3.27 14.724-10.648 21.266-3.379 2.491-5.943 3.922-10.165 3.359L146 101l1-3c1.855-.703 1.855-.703 4.188-1.25 6.166-1.866 9.14-5.646 12.125-11.188.94-3.508 1.32-6.948 1.687-10.562Z"/><path fill="#F89C63" d="m130 65 2 1-1 2 5 1c.748 7.026 1.138 13.934 1 21h-1l-1-7-4-1-1-4-4-1c-.504-5.294.81-7.814 4-12Z"/><path fill="#FBAE75" d="M62 106h32l-1 2 3 2c-2.974 1.487-5.948 1.006-9.195.879l-2.144-.072c-2.262-.076-4.524-.16-6.786-.245A4209.156 4209.156 0 0 1 62 110v-3.999Z"/><path fill="#1E1929" d="M92.227 46.715c6.003 2.7 10.05 6.663 12.878 12.61C107.387 65.67 106.892 70.602 105 77l-3-2 1-3c.537-6.333-.222-10.79-4-16-5.794-6.435-12.68-7.264-21-8v-2c4.219-2.11 9.885-.68 14.227.715Z"/><path fill="#F9A167" d="M55 90h45c-5.729 2.864-10.138 3.14-16.484 3.098l-2.472-.005a2833.03 2833.03 0 0 1-7.794-.03c-1.764-.006-3.529-.01-5.293-.014A5857.49 5857.49 0 0 1 55 93v-3Z"/><path fill="#BA3B2B" d="M147 110c1.457.127 2.915.228 4.375.313 3.322.33 4.409.52 7.125 2.624 2.695 3.705 2.618 6.03 2.598 10.602l-.01 3.945-.025 4.141c-.006 1.388-.01 2.776-.014 4.164A3987.48 3987.48 0 0 1 161 146h-1v-26l-3 1-1.313-2.938c-1.388-3.34-1.388-3.34-4.687-4.062a65.305 65.305 0 0 0-4.188-.063L143 114v-2h-10c2-3 2-3 3.75-3.75 3.63-.403 6.98.115 10.25 1.75Z"/><path fill="#F79364" d="M99 48c5.165 2.029 7.333 5.666 9.75 10.5 1.98 5.615 1.682 11.63 1.25 17.5l-1 2h-5l.543-2.055C106.155 68.891 106.181 63.594 103 57c-1.31-1.848-1.31-1.848-2.75-3.438L98 51l1-3Z"/><path fill="#F6D69D" d="m70 44 3 1c-5.75 4-5.75 4-8 4l.75 1.563c.328 3.198-1.03 4.594-2.691 7.222C60.946 62.205 60.6 67.181 60 72l-4-1c-.59-7.971 1.514-14.188 5.875-20.875 2.524-2.524 5-4.396 8.125-6.125Z"/><path fill="#FD844A" d="M125 122h1v17c-4 2-4 2-7.75 1.125L115 139v-2l-1.95.07c-7.53.15-14.644-.751-22.05-2.07v-1h24v1l10 2v-15Z"/><path fill="#E26F51" d="m46.5 81.75 3.203.078c4.782.25 9.538.647 14.297 1.172l-1 2-3.613.148-4.7.227c-.785.03-1.57.062-2.38.094l-2.295.117-2.11.095c-2.227.24-2.227.24-4.902 2.319-.73 2.563-.73 2.563-1 5h-4c-.366-7.452-.366-7.452 1.168-9.746 2.537-1.737 4.277-1.584 7.332-1.504Z"/><path fill="#E25F3C" d="M39 98c3.52-.059 7.041-.094 10.563-.125l3.001-.05c5.563-.038 10.184.304 15.436 2.175v1c-9.702.76-19.265 1.135-29 1v-4Z"/><path fill="#F49263" d="M149 56c5.91.123 8.918 1.917 13.195 5.96 2.64 2.984 4.788 6.154 5.805 10.04-.41 2.238-.41 2.238-1 4l-3-1a268.622 268.622 0 0 1-2.137-5.16C159.111 63.974 153.61 61.49 148 59l1-3Z"/><path fill="#F4C099" d="m143 117 5 1-1 16-4 1c-1.821-1.821-1.132-4.307-1.137-6.727l.012-2.273-.012-2.273c.01-5.6.01-5.6 1.137-6.727Z"/><path fill="#FD955D" d="M62 116h33l1 3H66v-2l-4-1Z"/><path fill="#F75830" d="M153 63c7.942 6.18 7.942 6.18 9 11a97.315 97.315 0 0 1 0 7l-2.375-.125c-2.786-.162-2.786-.162-4.625 2.125l.36-1.977c.912-5.954.912-5.954-1.298-11.46L152 67c0-3 0-3 1-4Z"/><path fill="#DD4524" d="M49 132h4v2l2.313-.313L58 134l1.219 2.469c1.605 2.892 1.605 2.892 5.136 3.238l3.832.106 3.856.144L75 140v1c-3.416.116-6.832.187-10.25.25l-2.934.102c-7.175.099-7.175.099-10.441-2.196-1.537-2.41-2.06-4.328-2.375-7.156Z"/><path fill="#F4CF98" d="M43.125 48.25C46 49 46 49 47 50c.188 2.938.188 2.938 0 6-2 2-2 2-5 2.25C39 58 39 58 37 56c-.363-2.834-.357-4.405 1.125-6.875C40 48 40 48 43.125 48.25Z"/><path fill="#F6CC96" d="M171.563 94.625C174 95 174 95 176 97c.313 3 .313 3 0 6-3 2-3 2-5.563 1.938C168 104 168 104 166.5 101.688c-.5-2.688-.5-2.688.563-5C169 95 169 95 171.563 94.624Z"/><path fill="#C97A64" d="M75 61h1v7l3 1v5h9v-5h2c.25 2.313.25 2.313 0 5-2.171 2.12-3.514 2.937-6.543 3.328l-2.644-.078-2.668-.047C76 77 76 77 75 76a184.94 184.94 0 0 1-.063-7.563l.014-2.154c.012-1.76.03-3.522.049-5.283Z"/><path fill="#F4B684" d="m87 48-2 1 1 3h-3v3h-3v-3h-2v3l-9-1c5.159-5.953 10.572-6.256 18-6Z"/><path fill="#F2C38D" d="M34.5 67.75C37 68 37 68 39 70c.368 2.87.375 4.408-1.188 6.875C36 78 36 78 33.376 77.75 31 77 31 77 30 76c-.188-2.938-.188-2.938 0-6 2-2 2-2 4.5-2.25Z"/><path fill="#DD4728" d="M104 64c.293 5.673.006 8.99-3 14h-7l1-3 2-1c.536-1.827.536-1.827.875-3.938.866-3.874.866-3.874 3.188-5.562C103 64 103 64 104 64Z"/><path fill="#E5502F" d="m62 69 10 2v7h-8c-1.498-3.371-2-5.204-2-9Z"/><path fill="#F79C69" d="m148 62 5 1-1 3 1.875 2.25c2.632 3.406 2.977 5.472 3.125 9.75-.482 2.447-1.179 4.633-2 7h-1c-1.19-5.38-2.292-10.453-2-16l-4-2v-5Z"/><path fill="#68463F" d="M39 105h10c1 3 1 3 .063 5.125L48 112v1h-6v-2l-4-2 1-4Z"/><path fill="#EA4F2A" d="M53 133h7v2h8v2l4-1 2 4c-2.102.135-4.207.232-6.313.313l-3.55.175L61 140c-1.75-2.469-1.75-2.469-3-5-2.591-.887-2.591-.887-5-1v-1Z"/><path fill="#BF6049" d="M139 69h1l1 9 7 1c-.25 2.375-.25 2.375-1 5-1.813 1.375-1.813 1.375-4 2l-4-1V69Z"/><path fill="#E33F26" d="M158 120h2v29l-3-1 1-28Z"/><path fill="#F5A872" d="M81 43c7.562-.447 12.763-.536 19 4l-2 3-2.105-.898c-3.042-1.158-6.046-1.963-9.207-2.727-1.07-.26-2.138-.52-3.239-.79L81 45v-2Z"/><path fill="#F57141" d="M63 63h6v3l3 1v4l-9-1c-1.125-4.75-1.125-4.75 0-7Z"/><path fill="#D45036" d="m108 62 2 1c.027 2.125.046 4.25.063 6.375l.035 3.586C110 76 110 76 109 78h-5c.475-2.48.954-4.959 1.438-7.438l.408-2.142c1.04-5.307 1.04-5.307 2.154-6.42Z"/><path fill="#ED8D61" d="M75 151c2.625-.188 2.625-.188 5 0 1.125 2.313 1.125 2.313 2 5l-2 3c-2.625.188-2.625.188-5 0-1.125-2.313-1.125-2.313-2-5l2-3Z"/><path fill="#F6522B" d="m131 82 5 1v7h3l-1 3c-4.75-.75-4.75-.75-7-3-.27-2.688-.087-5.291 0-8Z"/><path fill="#22212A" d="M90 46c2.86 1.127 5.323 2.463 8 4l-1 2a52.961 52.961 0 0 1-6.688-2C86.228 48.767 82.24 48.358 78 48v-2c3.718-1.859 8.032-.773 12 0Z"/><path fill="#E54A2A" d="M139 88h2l2 4 1-4h2v4h3v2l2 1c-2.125.054-4.25.093-6.375.125l-3.586.07C138 95 138 95 136 93l2-1c.652-2.025.652-2.025 1-4Z"/><path fill="#EC9972" d="m131 117 5 1v8l-4 2c-1-1-1-1-1.098-3.285l.036-2.778.027-2.785L131 117Z"/><path fill="#F1B690" d="M131 101h12v4h-12v-4Z"/><path fill="#CC6344" d="m152 111-1 2c-2.649.594-5.292.742-8 1v-2h-10c2-3 2-3 3.75-3.75 5.234-.582 10.289 1.262 15.25 2.75Z"/><path fill="#112132" d="M137 67h5v2h-3v21h-2V67Z"/><path fill="#131D2C" d="M80 59c2.007.287 4.009.619 6 1a88.406 88.406 0 0 1 1 5c-1 1-1 1-4.563 1.063L79 66c-.043-2-.04-4 0-6l1-1Z"/><path fill="#E64F28" d="M39 115c4.824-.193 8.496.243 13 2v2H38l1-4Z"/><path fill="#F4B685" d="m60 59 2 1-2 12-4-1v-8l4-2v-2Z"/><path fill="#E95B34" d="m165 75 4 2a339.656 339.656 0 0 1-.375 4.313c-.07.8-.14 1.6-.21 2.425C168 86 168 86 166 89v-3h-2l1-11Z"/><path fill="#161C25" d="m78 46 1 3-3.125 1.25C72.255 51.791 69.208 53.73 66 56l-1-3a700.574 700.574 0 0 1 3.813-2.938l2.144-1.652C73.289 46.8 75.141 46 78 46Z"/><path fill="#F8AB72" d="M109 83h17l-5 5-1-2c-2.816-.469-2.816-.469-6.063-.625l-3.347-.227L108 85l1-2Z"/><path fill="#F0D0A1" d="M118 48c1.675.286 3.344.618 5 1l-1 5c-1.875.625-1.875.625-4 1l-2-2c.536-3.536.536-3.536 2-5Z"/><path fill="#EE7049" d="M39 124h11c-3 4-3 4-5.043 4.39L39 128v-4Z"/><path fill="#FC9961" d="m143 122 3 1v12h-3v-13Z"/><path fill="#EDAB74" d="m79 50-1 5-9-1c5.25-5.425 5.25-5.425 10-4Z"/><path fill="#FC8E57" d="M61 98c2.083-.027 4.167-.046 6.25-.063l3.516-.035c2.644.08 4.732.312 7.234 1.098v2c-6.098.22-11.216.012-17-2v-1Z"/><path fill="#F5BB85" d="m109 108 3 1c1.188 2.563 1.188 2.563 2 5-1 1-1 1-3.563 1.063L108 115c-.625-2.375-.625-2.375-1-5l2-2Z"/><path fill="#F6A36C" d="M62 106h7v3l3-1v2H62v-4Z"/><path fill="#1B1F31" d="m143 70 4 2v4h-6c.875-4.875.875-4.875 2-6Z"/><path fill="#F8D7A5" d="m83.188 41.938 3.855.027L90 42v1h-9l-1 3c-4.75-.75-4.75-.75-7-3 3.56-1.187 6.438-1.097 10.188-1.063Z"/><path fill="#2F1E2B" d="M138 85c2.375-.188 2.375-.188 5 0l2 3c-.875 2.688-.875 2.688-2 5l-2-1v-4h-3v-3Z"/><path fill="#F27B4E" d="M130 78c5.875.875 5.875.875 7 2 .072 1.686.084 3.375.063 5.063l-.028 2.785L137 90h-1l-1-7-4-1-1-4Z"/><path fill="#E07555" d="M140 69c6.75-.125 6.75-.125 9 1 .75 1.938.75 1.938 1 4l-2 2-3-5-3 1-1 6h-1v-9Z"/><path fill="#EC9066" d="M34 136h5l1 4-4 2-3-3 1-3Z"/><path fill="#C85342" d="m47 73 5 1v4h-6l1-5Z"/><path fill="#EAC499" d="M37 62c2.375.188 2.375.188 5 1 1.313 2.563 1.313 2.563 2 5-4 0-4 0-5.75-1.313C37 65 37 65 37 62Z"/><path fill="#0F1C33" d="M142 79h6l-1 5h-5v-5Z"/><path fill="#DC5136" d="m156 147 2 1v3c-3.228 2.152-4.284 2.2-8 2 1-3 1-3 3.438-4.75L156 147Z"/><path fill="#FB9F61" d="M74 98h11v2l3 1H78v-2l-4-1Z"/><path fill="#F78E5D" d="M125 122h1v17l-4 2v-4h3v-15Z"/><path fill="#D83D1F" d="M148 88h5l1 5-5 1-1-6Z"/><path fill="#F8BF84" d="M81 43h12c-3 3-3 3-5.262 3.074l-2.425-.386-2.45-.364L81 45v-2Z"/><path fill="#ED906A" d="M104 57h4c1.158 4.054.837 6.218-1 10h-1l-2-10Z"/><path fill="#161A24" d="M142 58c1.439.087 2.876.196 4.313.313l2.425.175c2.625.594 3.57 1.47 5.262 3.512-8.571-1-8.571-1-12-2v-2Z"/><path fill="#F68858" d="M156 73h1c-.553 4.03-1.156 8.02-2 12h-1l-2-9 4-1v-2Z"/><path fill="#2A1F29" d="m105 66 2 1-2 10-3-2 3-9Z"/><path fill="#F56A3D" d="m108 62 2 1v8l-2 1c-1.491-2.982-1.12-5.716-1-9l1-1Z"/><path fill="#372530" d="M91 63c1.125 1.688 1.125 1.688 2 4-.875 2.75-.875 2.75-2 5l-1-3h-3v-3h2v-2l2-1Z"/><path fill="#ECC599" d="m86 65 1 4h-8v-3l7-1Z"/><path fill="#F4A979" d="m131 119 2 3h2v5h-4v-8Z"/><path fill="#C95C46" d="m153 85 1 3c2 1.209 2 1.209 4 2l-4 3-.813-1.938C152.113 88.67 152.113 88.67 149 88l4-3Z"/><path fill="#F8C287" d="M142 55a364.73 364.73 0 0 1 4.875-.125l2.742-.07C152 55 152 55 154 57c-1.434.25-2.873.474-4.313.688l-2.425.386C145 58 145 58 143.207 56.52L142 55Z"/><path fill="#DF4323" d="M39 86h4l-1 7h-3v-7Z"/><path fill="#FAAD71" d="M85 49h6l-1.063 1.875L89 53l1 2h-4l-1-6Z"/><path fill="#E1CDA8" d="m70 44 3 1c-5.75 4-5.75 4-8 4l1 4-4-1c1.501-4.204 4.173-5.891 8-8Z"/><path fill="#D9634D" d="M158 93c.688 1.813.688 1.813 1 4-1.438 1.75-1.438 1.75-3 3l-3-1-1-2 6-4Z"/><path fill="#C9462F" d="M63 75h9v3h-8l-1-3Z"/><path fill="#ED865C" d="M165 67c2.125 3.188 2.502 5.265 3 9l-4-1 1-8Z"/><path fill="#F98651" d="m76 58 2 1c.414 2.285.414 2.285.625 5.063l.227 2.785L79 69l-3-1V58Z"/><path fill="#F96337" d="m153 63 5 4-1 2c-1.875-.313-1.875-.313-4-1l-2-3 2-2Z"/><path fill="#171822" d="M141 64h3v3h2v-3h2v4l-6 1-1-5Z"/><path fill="#FB7A47" d="m68 63 1 3 3 1v3l-3-1v-2l-4-1v-2l3-1Z"/><path fill="#31212A" d="M154 61c5.875 3.75 5.875 3.75 7 6l-3 1c-2.264-1.404-4.02-3.197-6-5l2-2Z"/><path fill="#FA8458" d="M55 124v2c-2.906 1.257-4.796 2-8 2l1-3c2.463-1.231 4.28-1.072 7-1Z"/><path fill="#F56335" d="M51 116c7.75.75 7.75.75 10 3h-9l-1-3Z"/><path fill="#E65A38" d="m144 109 8 2-1 2c-2.649.594-5.292.742-8 1l1-5Z"/><path fill="#EB4724" d="m132 89 7 1-1 3-5-1-1-3Z"/><path fill="#D0513B" d="M144 88h2v4h3v2l2 1h-3v-2l-5 1 1-6Z"/><path fill="#DE4224" d="m64 72 8 2c-3 2-3 2-6.188 1.625L63 75l1-3Z"/><path fill="#F9D58D" d="M134 57c-.188 1.813-.188 1.813-1 4-2.563 1.75-2.563 1.75-5 3 .313-2.375.313-2.375 1-5 3-2 3-2 5-2Z"/><path fill="#EFAB74" d="M149 56c2.343.256 4.678.593 7 1l1 2c-2.813.625-2.813.625-6 1l-3-2 1-2Z"/><path fill="#262E36" d="m85 45 1 3h-8v-2c2.463-1.231 4.28-1.072 7-1Z"/><path fill="#FC8452" d="M62 116c7.75-.125 7.75-.125 10 1v2h-6v-2l-4-1Z"/><path fill="#F99560" d="m148 62 5 1-1 4h-4v-5Z"/><path fill="#DCB390" d="m164 108 3 1v4l-5-1 2-4Z"/><path fill="#B64732" d="M101 73h2l-2 5h-7c2-2 2-2 4.063-2.5L100 75l1-2Z"/><path fill="#FB5E29" d="M97 64h1c1.23 6.4 1.23 6.4.063 9.438L97 75h-1c-.143-7.429-.143-7.429 1-11Z"/><path fill="#DE8868" d="m87 58 3 2-1 6h-2v-8Z"/><path fill="#D23A1F" d="M50 135c2.438.813 2.438.813 5 2l1 3-5-1-1-4Z"/><path fill="#C54833" d="M39 115h7c-2.622 2.154-4.644 3.4-8 4l1-4Z"/><path fill="#E46B46" d="m165 75 4 2v5l-2-2-2 1v-6Z"/><path fill="#EEB97B" d="m121 72 3 1-1 5h-3a99.984 99.984 0 0 1 0-5l1-1Z"/><path fill="#E69565" d="M117 116c2 2 2 2 2 6h-6l4-6Z"/><path fill="#F39457" d="M102 119h3l-2 6-3-1 2-5Z"/><path fill="#F3BD84" d="m126 83-5 5-1-2h-2v-2c2.928-.976 4.956-1.082 8-1Z"/><path fill="#F75E34" d="M63 68c6.75.75 6.75.75 9 3l-9-1v-2Z"/><path fill="#E99767" d="M155 59c2.625.375 2.625.375 5 1l-2 3-5-2 2-2Z"/></svg>